<svg width="20" height="20" viewBox="0 0 20 20" fill="none" xmlns="http://www.w3.org/2000/svg">
<path d="M16.6667 5.83333H13.3334V3.33333C13.3334 1.4925 11.8409 0 10.0001 0C8.15925 0 6.66675 1.4925 6.66675 3.33333V5.83333H3.33341L1.66675 20H18.3334L16.6667 5.83333ZM7.50008 3.33333C7.50008 1.955 8.62175 0.833333 10.0001 0.833333C11.3784 0.833333 12.5001 1.955 12.5001 3.33333V5.83333H7.50008V3.33333ZM3.54091 18.3333L4.81508 7.5H6.66675V8.75C6.66675 8.98 6.85342 9.16667 7.08342 9.16667C7.31342 9.16667 7.50008 8.98 7.50008 8.75V7.5H12.5001V8.75C12.5001 8.98 12.6867 9.16667 12.9167 9.16667C13.1467 9.16667 13.3334 8.98 13.3334 8.75V7.5H15.1851L16.4592 18.3333H3.54091Z" fill="#333333"/>
</svg>
